<svg width="55" height="55" viewBox="0 0 55 55" fill="none" xmlns="http://www.w3.org/2000/svg">
<path d="M27.5 16.0416V48.125" stroke="black" stroke-width="2" stroke-linecap="round" stroke-linejoin="round"/>
<path d="M36.6667 27.5H41.25" stroke="black" stroke-width="2" stroke-linecap="round" stroke-linejoin="round"/>
<path d="M36.6667 18.3334H41.25" stroke="black" stroke-width="2" stroke-linecap="round" stroke-linejoin="round"/>
<path d="M6.87501 41.25C6.26722 41.25 5.68433 41.0086 5.25456 40.5788C4.82479 40.149 4.58334 39.5661 4.58334 38.9583V9.16667C4.58334 8.55888 4.82479 7.97598 5.25456 7.54621C5.68433 7.11644 6.26722 6.875 6.87501 6.875H18.3333C20.7645 6.875 23.0961 7.84077 24.8152 9.55985C26.5342 11.2789 27.5 13.6105 27.5 16.0417C27.5 13.6105 28.4658 11.2789 30.1849 9.55985C31.9039 7.84077 34.2355 6.875 36.6667 6.875H48.125C48.7328 6.875 49.3157 7.11644 49.7455 7.54621C50.1752 7.97598 50.4167 8.55888 50.4167 9.16667V38.9583C50.4167 39.5661 50.1752 40.149 49.7455 40.5788C49.3157 41.0086 48.7328 41.25 48.125 41.25H34.375C32.5516 41.25 30.803 41.9743 29.5136 43.2636C28.2243 44.553 27.5 46.3016 27.5 48.125C27.5 46.3016 26.7757 44.553 25.4864 43.2636C24.1971 41.9743 22.4484 41.25 20.625 41.25H6.87501Z" stroke="black" stroke-width="2" stroke-linecap="round" stroke-linejoin="round"/>
<path d="M13.75 27.5H18.3333" stroke="black" stroke-width="2" stroke-linecap="round" stroke-linejoin="round"/>
<path d="M13.75 18.3334H18.3333" stroke="black" stroke-width="2" stroke-linecap="round" stroke-linejoin="round"/>
</svg>
