<svg width="55" height="55" viewBox="0 0 55 55" fill="none" xmlns="http://www.w3.org/2000/svg">
<path d="M41.25 48.125C41.25 43.2627 39.3185 38.5995 35.8803 35.1613C32.4421 31.7232 27.779 29.7916 22.9167 29.7916C18.0544 29.7916 13.3912 31.7232 9.95305 35.1613C6.51489 38.5995 4.58334 43.2627 4.58334 48.125" stroke="black" stroke-width="2" stroke-linecap="round" stroke-linejoin="round"/>
<path d="M22.9167 29.7917C29.2449 29.7917 34.375 24.6616 34.375 18.3333C34.375 12.0051 29.2449 6.875 22.9167 6.875C16.5884 6.875 11.4583 12.0051 11.4583 18.3333C11.4583 24.6616 16.5884 29.7917 22.9167 29.7917Z" stroke="black" stroke-width="2" stroke-linecap="round" stroke-linejoin="round"/>
<path d="M50.4167 45.8333C50.4167 38.1104 45.8333 30.9375 41.25 27.5C42.7566 26.3696 43.9613 24.8854 44.7576 23.1785C45.5538 21.4716 45.917 19.5948 45.815 17.7141C45.7131 15.8334 45.1491 14.0068 44.173 12.396C43.1968 10.7853 41.8387 9.43993 40.2188 8.47913" stroke="black" stroke-width="2" stroke-linecap="round" stroke-linejoin="round"/>
</svg>
