<svg width="200" height="152" viewBox="0 0 200 152" fill="none" xmlns="http://www.w3.org/2000/svg">
<path d="M44.9091 50.7273C44.9091 55.6364 44.0227 59.8788 42.25 63.4545C40.4773 67.0303 38.0455 69.7879 34.9545 71.7273C31.8636 73.6667 28.3333 74.6364 24.3636 74.6364C20.3939 74.6364 16.8636 73.6667 13.7727 71.7273C10.6818 69.7879 8.25 67.0303 6.47727 63.4545C4.70455 59.8788 3.81818 55.6364 3.81818 50.7273C3.81818 45.8182 4.70455 41.5758 6.47727 38C8.25 34.4242 10.6818 31.6667 13.7727 29.7273C16.8636 27.7879 20.3939 26.8182 24.3636 26.8182C28.3333 26.8182 31.8636 27.7879 34.9545 29.7273C38.0455 31.6667 40.4773 34.4242 42.25 38C44.0227 41.5758 44.9091 45.8182 44.9091 50.7273ZM39.4545 50.7273C39.4545 46.697 38.7803 43.2955 37.4318 40.5227C36.0985 37.75 34.2879 35.6515 32 34.2273C29.7273 32.803 27.1818 32.0909 24.3636 32.0909C21.5455 32.0909 18.9924 32.803 16.7045 34.2273C14.4318 35.6515 12.6212 37.75 11.2727 40.5227C9.93939 43.2955 9.27273 46.697 9.27273 50.7273C9.27273 54.7576 9.93939 58.1591 11.2727 60.9318C12.6212 63.7045 14.4318 65.803 16.7045 67.2273C18.9924 68.6515 21.5455 69.3636 24.3636 69.3636C27.1818 69.3636 29.7273 68.6515 32 67.2273C34.2879 65.803 36.0985 63.7045 37.4318 60.9318C38.7803 58.1591 39.4545 54.7576 39.4545 50.7273ZM61.5682 74L50.9318 39.0909H56.5682L64.1136 65.8182H64.4773L71.9318 39.0909H77.6591L85.0227 65.7273H85.3864L92.9318 39.0909H98.5682L87.9318 74H82.6591L75.0227 47.1818H74.4773L66.8409 74H61.5682ZM111.023 27.4545V74H105.659V27.4545H111.023ZM85.0909 116.091C84.8182 113.788 83.7121 112 81.7727 110.727C79.8333 109.455 77.4545 108.818 74.6364 108.818C72.5758 108.818 70.7727 109.152 69.2273 109.818C67.697 110.485 66.5 111.402 65.6364 112.568C64.7879 113.735 64.3636 115.061 64.3636 116.545C64.3636 117.788 64.6591 118.856 65.25 119.75C65.8561 120.629 66.6288 121.364 67.5682 121.955C68.5076 122.53 69.4924 123.008 70.5227 123.386C71.553 123.75 72.5 124.045 73.3636 124.273L78.0909 125.545C79.303 125.864 80.6515 126.303 82.1364 126.864C83.6364 127.424 85.0682 128.189 86.4318 129.159C87.8106 130.114 88.947 131.341 89.8409 132.841C90.7349 134.341 91.1818 136.182 91.1818 138.364C91.1818 140.879 90.5227 143.152 89.2045 145.182C87.9015 147.212 85.9924 148.826 83.4773 150.023C80.9773 151.22 77.9394 151.818 74.3636 151.818C71.0303 151.818 68.1439 151.28 65.7045 150.205C63.2803 149.129 61.3712 147.629 59.9773 145.705C58.5985 143.78 57.8182 141.545 57.6364 139H63.4545C63.6061 140.758 64.197 142.212 65.2273 143.364C66.2727 144.5 67.5909 145.348 69.1818 145.909C70.7879 146.455 72.5152 146.727 74.3636 146.727C76.5152 146.727 78.447 146.379 80.1591 145.682C81.8712 144.97 83.2273 143.985 84.2273 142.727C85.2273 141.455 85.7273 139.97 85.7273 138.273C85.7273 136.727 85.2955 135.47 84.4318 134.5C83.5682 133.53 82.4318 132.742 81.0227 132.136C79.6136 131.53 78.0909 131 76.4545 130.545L70.7273 128.909C67.0909 127.864 64.2121 126.371 62.0909 124.432C59.9697 122.492 58.9091 119.955 58.9091 116.818C58.9091 114.212 59.6136 111.939 61.0227 110C62.447 108.045 64.3561 106.53 66.75 105.455C69.1591 104.364 71.8485 103.818 74.8182 103.818C77.8182 103.818 80.4848 104.356 82.8182 105.432C85.1515 106.492 87 107.947 88.3636 109.795C89.7424 111.644 90.4697 113.742 90.5455 116.091H85.0909ZM104.722 138.273L104.631 131.636H105.722L120.994 116.091H127.631L111.358 132.545H110.903L104.722 138.273ZM99.7216 151V104.455H105.085V151H99.7216ZM121.903 151L108.267 133.727L112.085 130L128.722 151H121.903ZM134.534 151V116.091H139.898V151H134.534ZM137.261 110.273C136.216 110.273 135.314 109.917 134.557 109.205C133.814 108.492 133.443 107.636 133.443 106.636C133.443 105.636 133.814 104.78 134.557 104.068C135.314 103.356 136.216 103 137.261 103C138.307 103 139.201 103.356 139.943 104.068C140.701 104.78 141.08 105.636 141.08 106.636C141.08 107.636 140.701 108.492 139.943 109.205C139.201 109.917 138.307 110.273 137.261 110.273ZM155.085 104.455V151H149.722V104.455H155.085ZM170.273 104.455V151H164.909V104.455H170.273Z" fill="black"/>
<path d="M64.5 10C70.8901 10 76 14.9629 76 21C76 27.0371 70.8901 32 64.5 32C58.1099 32 53 27.0371 53 21C53 14.9629 58.1099 10 64.5 10Z" stroke="black" stroke-width="2"/>
<path d="M89.5 10C95.8901 10 101 14.9629 101 21C101 27.0371 95.8901 32 89.5 32C83.1099 32 78 27.0371 78 21C78 14.9629 83.1099 10 89.5 10Z" stroke="black" stroke-width="2"/>
<path d="M60.5703 3.40039L60.8711 4.9043L51.4033 3.55176L50.6924 0.707031L60.5703 3.40039Z" fill="black" stroke="black"/>
<path d="M93.373 3.41309L92.7852 4.88184L102.097 3.55176L102.806 0.717773L93.373 3.41309Z" fill="black" stroke="black"/>
<path d="M74.2954 31.545L78.7426 31.5614L76.5024 36.0483L74.2954 31.545Z" fill="black" stroke="black"/>
<path d="M63 19.5C64.4699 19.5 65.5 20.4769 65.5 21.5C65.5 22.5231 64.4699 23.5 63 23.5C61.5301 23.5 60.5 22.5231 60.5 21.5C60.5 20.4769 61.5301 19.5 63 19.5Z" fill="black" stroke="black"/>
<path d="M88 19.5C89.4699 19.5 90.5 20.4769 90.5 21.5C90.5 22.5231 89.4699 23.5 88 23.5C86.5301 23.5 85.5 22.5231 85.5 21.5C85.5 20.4769 86.5301 19.5 88 19.5Z" fill="black" stroke="black"/>
</svg>
