<svg width="273" height="223" viewBox="0 0 273 223" fill="none" xmlns="http://www.w3.org/2000/svg">
<path d="M116.911 70.0909C116.911 77.4545 115.581 83.8182 112.922 89.1818C110.263 94.5455 106.615 98.6818 101.979 101.591C97.3423 104.5 92.0469 105.955 86.0923 105.955C80.1378 105.955 74.8423 104.5 70.206 101.591C65.5696 98.6818 61.9219 94.5455 59.2628 89.1818C56.6037 83.8182 55.2741 77.4545 55.2741 70.0909C55.2741 62.7273 56.6037 56.3636 59.2628 51C61.9219 45.6364 65.5696 41.5 70.206 38.5909C74.8423 35.6818 80.1378 34.2273 86.0923 34.2273C92.0469 34.2273 97.3423 35.6818 101.979 38.5909C106.615 41.5 110.263 45.6364 112.922 51C115.581 56.3636 116.911 62.7273 116.911 70.0909ZM108.729 70.0909C108.729 64.0455 107.717 58.9432 105.695 54.7841C103.695 50.625 100.979 47.4773 97.5469 45.3409C94.1378 43.2045 90.3196 42.1364 86.0923 42.1364C81.8651 42.1364 78.0355 43.2045 74.6037 45.3409C71.1946 47.4773 68.4787 50.625 66.456 54.7841C64.456 58.9432 63.456 64.0455 63.456 70.0909C63.456 76.1364 64.456 81.2386 66.456 85.3977C68.4787 89.5568 71.1946 92.7045 74.6037 94.8409C78.0355 96.9773 81.8651 98.0455 86.0923 98.0455C90.3196 98.0455 94.1378 96.9773 97.5469 94.8409C100.979 92.7045 103.695 89.5568 105.695 85.3977C107.717 81.2386 108.729 76.1364 108.729 70.0909ZM141.899 105L125.945 52.6364H134.399L145.717 92.7273H146.263L157.445 52.6364H166.036L177.081 92.5909H177.626L188.945 52.6364H197.399L181.445 105H173.536L162.081 64.7727H161.263L149.808 105H141.899ZM216.081 35.1818V105H208.036V35.1818H216.081ZM67.1676 168.636C66.7585 165.182 65.0994 162.5 62.1903 160.591C59.2813 158.682 55.7131 157.727 51.4858 157.727C48.3949 157.727 45.6903 158.227 43.3722 159.227C41.0767 160.227 39.2813 161.602 37.9858 163.352C36.7131 165.102 36.0767 167.091 36.0767 169.318C36.0767 171.182 36.5199 172.784 37.4062 174.125C38.3153 175.443 39.4744 176.545 40.8835 177.432C42.2926 178.295 43.7699 179.011 45.3153 179.58C46.8608 180.125 48.2812 180.568 49.5767 180.909L56.6676 182.818C58.4858 183.295 60.5085 183.955 62.7358 184.795C64.9858 185.636 67.1335 186.784 69.179 188.239C71.2472 189.67 72.9517 191.511 74.2926 193.761C75.6335 196.011 76.304 198.773 76.304 202.045C76.304 205.818 75.3153 209.227 73.3381 212.273C71.3835 215.318 68.5199 217.739 64.7472 219.534C60.9972 221.33 56.4403 222.227 51.0767 222.227C46.0767 222.227 41.7472 221.42 38.0881 219.807C34.4517 218.193 31.5881 215.943 29.4972 213.057C27.429 210.17 26.2585 206.818 25.9858 203H34.7131C34.9403 205.636 35.8267 207.818 37.3722 209.545C38.9403 211.25 40.9176 212.523 43.304 213.364C45.7131 214.182 48.304 214.591 51.0767 214.591C54.304 214.591 57.2017 214.068 59.7699 213.023C62.3381 211.955 64.3722 210.477 65.8722 208.591C67.3722 206.682 68.1222 204.455 68.1222 201.909C68.1222 199.591 67.4744 197.705 66.179 196.25C64.8835 194.795 63.179 193.614 61.0653 192.705C58.9517 191.795 56.6676 191 54.2131 190.318L45.6222 187.864C40.1676 186.295 35.8494 184.057 32.6676 181.148C29.4858 178.239 27.8949 174.432 27.8949 169.727C27.8949 165.818 28.9517 162.409 31.0653 159.5C33.2017 156.568 36.0653 154.295 39.6562 152.682C43.2699 151.045 47.304 150.227 51.7585 150.227C56.2585 150.227 60.2585 151.034 63.7585 152.648C67.2585 154.239 70.0313 156.42 72.0767 159.193C74.1449 161.966 75.2358 165.114 75.3494 168.636H67.1676ZM96.6136 201.909L96.4773 191.955H98.1136L121.023 168.636H130.977L106.568 193.318H105.886L96.6136 201.909ZM89.1136 221V151.182H97.1591V221H89.1136ZM122.386 221L101.932 195.091L107.659 189.5L132.614 221H122.386ZM141.332 221V168.636H149.378V221H141.332ZM145.423 159.909C143.855 159.909 142.503 159.375 141.366 158.307C140.253 157.239 139.696 155.955 139.696 154.455C139.696 152.955 140.253 151.67 141.366 150.602C142.503 149.534 143.855 149 145.423 149C146.991 149 148.332 149.534 149.446 150.602C150.582 151.67 151.151 152.955 151.151 154.455C151.151 155.955 150.582 157.239 149.446 158.307C148.332 159.375 146.991 159.909 145.423 159.909ZM172.159 151.182V221H164.114V151.182H172.159ZM194.94 151.182V221H186.895V151.182H194.94ZM246.767 180.364L239.54 182.409C239.085 181.205 238.415 180.034 237.528 178.898C236.665 177.739 235.483 176.784 233.983 176.034C232.483 175.284 230.562 174.909 228.222 174.909C225.017 174.909 222.347 175.648 220.21 177.125C218.097 178.58 217.04 180.432 217.04 182.682C217.04 184.682 217.767 186.261 219.222 187.42C220.676 188.58 222.949 189.545 226.04 190.318L233.812 192.227C238.494 193.364 241.983 195.102 244.278 197.443C246.574 199.761 247.722 202.75 247.722 206.409C247.722 209.409 246.858 212.091 245.131 214.455C243.426 216.818 241.04 218.682 237.972 220.045C234.903 221.409 231.335 222.091 227.267 222.091C221.926 222.091 217.506 220.932 214.006 218.614C210.506 216.295 208.29 212.909 207.358 208.455L214.994 206.545C215.722 209.364 217.097 211.477 219.119 212.886C221.165 214.295 223.835 215 227.131 215C230.881 215 233.858 214.205 236.062 212.614C238.29 211 239.403 209.068 239.403 206.818C239.403 205 238.767 203.477 237.494 202.25C236.222 201 234.267 200.068 231.631 199.455L222.903 197.409C218.108 196.273 214.585 194.511 212.335 192.125C210.108 189.716 208.994 186.705 208.994 183.091C208.994 180.136 209.824 177.523 211.483 175.25C213.165 172.977 215.449 171.193 218.335 169.898C221.244 168.602 224.54 167.955 228.222 167.955C233.403 167.955 237.472 169.091 240.426 171.364C243.403 173.636 245.517 176.636 246.767 180.364Z" fill="black"/>
<path d="M144.972 12.7757C153.491 12.7759 160.327 19.396 160.327 27.4769C160.327 35.5577 153.491 42.1779 144.972 42.178C136.453 42.178 129.617 35.5578 129.617 27.4769C129.617 19.3958 136.453 12.7757 144.972 12.7757Z" stroke="black" stroke-width="2"/>
<path d="M177.683 12.7757C186.202 12.7759 193.037 19.396 193.037 27.4769C193.037 35.5577 186.202 42.1779 177.683 42.178C169.163 42.178 162.327 35.5578 162.327 27.4769C162.327 19.3958 169.163 12.7757 177.683 12.7757Z" stroke="black" stroke-width="2"/>
<path d="M139.962 4.3252L140.418 6.60059L127.712 4.78516L126.692 0.707031L139.962 4.3252Z" fill="black" stroke="black"/>
<path d="M182.635 4.33887L181.739 6.57812L194.288 4.78516L195.306 0.717773L182.635 4.33887Z" fill="black" stroke="black"/>
<path d="M157.54 41.1192L163.856 41.1424L160.675 47.5136L157.54 41.1192Z" fill="black" stroke="black"/>
<path d="M143.009 25.3598C144.99 25.3598 146.435 26.6824 146.435 28.1313C146.434 29.58 144.99 30.9018 143.009 30.9018C141.028 30.9016 139.584 29.5799 139.584 28.1313C139.584 26.6825 141.028 25.36 143.009 25.3598Z" fill="black" stroke="black"/>
<path d="M175.719 25.3598C177.7 25.3598 179.145 26.6824 179.145 28.1313C179.145 29.58 177.7 30.9018 175.719 30.9018C173.739 30.9016 172.295 29.5799 172.294 28.1313C172.294 26.6825 173.738 25.36 175.719 25.3598Z" fill="black" stroke="black"/>
</svg>
